<?xml version="1.0" encoding="UTF-8" standalone="no"?>
<svg xmlns:ffdec="https://www.free-decompiler.com/flash" xmlns:xlink="http://www.w3.org/1999/xlink" ffdec:objectType="shape" height="418.0px" width="418.0px" xmlns="http://www.w3.org/2000/svg">
  <g transform="matrix(1.0, 0.0, 0.0, 1.0, 209.0, 209.0)">
    <path d="M147.75 -147.8 Q209.0 -86.55 209.0 0.0 209.0 86.55 147.75 147.75 110.1 185.45 62.85 199.95 33.3 209.0 0.05 209.0 -33.25 209.0 -62.8 199.95 -110.1 185.45 -147.85 147.75 -209.05 86.55 -209.0 0.0 -209.05 -86.55 -147.85 -147.8 -118.3 -177.3 -82.9 -192.55 -44.8 -209.0 0.05 -209.0 44.85 -209.0 82.9 -192.55 118.25 -177.3 147.75 -147.8" fill="url(#gradient0)" fill-rule="evenodd" stroke="none"/>
  </g>
  <defs>
    <radialGradient cx="0" cy="0" gradientTransform="matrix(0.258, 0.0, 0.0, 0.258, 0.0, 0.0)" gradientUnits="userSpaceOnUse" id="gradient0" r="819.2" spreadMethod="pad">
      <stop offset="0.0" stop-color="#121212" stop-opacity="0.12156863"/>
      <stop offset="1.0" stop-color="#a2a2a2" stop-opacity="0.22352941"/>
    </radialGradient>
  </defs>
</svg>
