<?xml version="1.0" encoding="UTF-8" standalone="no"?>
<svg xmlns:ffdec="https://www.free-decompiler.com/flash" xmlns:xlink="http://www.w3.org/1999/xlink" ffdec:objectType="shape" height="250.0px" width="250.0px" xmlns="http://www.w3.org/2000/svg">
  <g transform="matrix(1.0, 0.0, 0.0, 1.0, 125.0, 125.0)">
    <path d="M2.0 -116.0 L0.0 -116.0 -22.95 -113.75 Q-56.5 -107.6 -82.05 -82.05 -112.45 -51.65 -115.6 -9.9 L-115.95 -2.05 -116.0 2.0 -115.75 8.0 Q-113.15 50.9 -82.05 82.0 -48.05 115.95 0.0 116.0 25.45 115.95 46.95 106.45 L54.25 102.85 Q69.15 94.85 82.0 82.0 113.2 50.85 115.8 7.8 L116.0 0.0 Q116.0 -5.05 115.65 -9.9 112.45 -51.65 82.0 -82.05 70.65 -93.45 57.75 -101.05 L50.6 -104.9 48.5 -105.9 41.05 -109.0 Q33.1 -112.05 24.6 -113.85 L2.0 -116.0 M125.0 0.0 Q125.0 22.95 117.8 42.95 108.75 68.0 88.35 88.35 51.75 124.95 0.0 125.0 -38.8 124.95 -69.05 104.45 -79.2 97.55 -88.4 88.35 -108.7 68.05 -117.75 43.1 -125.0 23.05 -125.0 0.0 -125.0 -51.8 -88.4 -88.45 -77.6 -99.3 -65.4 -106.9 -36.5 -125.05 0.0 -125.0 51.75 -125.05 88.35 -88.45 125.0 -51.8 125.0 0.0" fill="#000000" fill-rule="evenodd" stroke="none"/>
  </g>
</svg>
