<?xml version="1.0" encoding="UTF-8" standalone="no"?>
<svg xmlns:ffdec="https://www.free-decompiler.com/flash" xmlns:xlink="http://www.w3.org/1999/xlink" ffdec:objectType="shape" height="150.55px" width="326.05px" xmlns="http://www.w3.org/2000/svg">
  <g transform="matrix(1.0, 0.0, 0.0, 1.0, 161.35, 76.0)">
    <path d="M123.9 -58.8 Q124.65 -59.5 125.7 -59.5 126.75 -59.5 127.45 -58.8 128.2 -58.05 128.2 -57.0 128.2 -55.95 127.45 -55.25 126.75 -54.5 125.7 -54.5 124.65 -54.5 123.9 -55.25 123.2 -55.95 123.2 -57.0 123.2 -58.05 123.9 -58.8 M138.5 -65.4 Q139.25 -66.1 140.3 -66.1 141.35 -66.1 142.05 -65.4 142.8 -64.65 142.8 -63.6 142.8 -62.55 142.05 -61.85 141.35 -61.1 140.3 -61.1 139.25 -61.1 138.5 -61.85 137.8 -62.55 137.8 -63.6 137.8 -64.65 138.5 -65.4 M135.5 -60.3 Q135.5 -59.25 134.75 -58.55 134.05 -57.8 133.0 -57.8 131.95 -57.8 131.2 -58.55 130.5 -59.25 130.5 -60.3 130.5 -61.35 131.2 -62.1 131.95 -62.8 133.0 -62.8 134.05 -62.8 134.75 -62.1 135.5 -61.35 135.5 -60.3 M160.4 -75.3 Q161.15 -76.0 162.2 -76.0 163.25 -76.0 163.95 -75.3 164.7 -74.55 164.7 -73.5 164.7 -72.45 163.95 -71.75 163.25 -71.0 162.2 -71.0 161.15 -71.0 160.4 -71.75 159.7 -72.45 159.7 -73.5 159.7 -74.55 160.4 -75.3 M153.1 -72.0 Q153.85 -72.7 154.9 -72.7 155.95 -72.7 156.65 -72.0 157.4 -71.25 157.4 -70.2 157.4 -69.15 156.65 -68.45 155.95 -67.7 154.9 -67.7 153.85 -67.7 153.1 -68.45 152.4 -69.15 152.4 -70.2 152.4 -71.25 153.1 -72.0 M145.8 -68.7 Q146.55 -69.4 147.6 -69.4 148.65 -69.4 149.35 -68.7 150.1 -67.95 150.1 -66.9 150.1 -65.85 149.35 -65.15 148.65 -64.4 147.6 -64.4 146.55 -64.4 145.8 -65.15 145.1 -65.85 145.1 -66.9 145.1 -67.95 145.8 -68.7 M118.4 -56.2 Q119.45 -56.2 120.15 -55.5 120.9 -54.75 120.9 -53.7 120.9 -52.65 120.15 -51.95 119.45 -51.2 118.4 -51.2 117.35 -51.2 116.6 -51.95 115.9 -52.65 115.9 -53.7 115.9 -54.75 116.6 -55.5 117.35 -56.2 118.4 -56.2 M113.6 -50.4 Q113.6 -49.35 112.85 -48.65 112.15 -47.9 111.1 -47.9 110.05 -47.9 109.3 -48.65 108.6 -49.35 108.6 -50.4 108.6 -51.45 109.3 -52.2 110.05 -52.9 111.1 -52.9 112.15 -52.9 112.85 -52.2 113.6 -51.45 113.6 -50.4 M103.8 -49.6 Q104.85 -49.6 105.55 -48.9 106.3 -48.15 106.3 -47.1 106.3 -46.05 105.55 -45.35 104.85 -44.6 103.8 -44.6 102.75 -44.6 102.0 -45.35 101.3 -46.05 101.3 -47.1 101.3 -48.15 102.0 -48.9 102.75 -49.6 103.8 -49.6 M98.25 -45.6 Q99.0 -44.85 99.0 -43.8 99.0 -42.75 98.25 -42.05 97.55 -41.3 96.5 -41.3 95.45 -41.3 94.7 -42.05 94.0 -42.75 94.0 -43.8 94.0 -44.85 94.7 -45.6 95.45 -46.3 96.5 -46.3 97.55 -46.3 98.25 -45.6 M89.2 -43.0 Q90.25 -43.0 90.95 -42.3 91.7 -41.55 91.7 -40.5 91.7 -39.45 90.95 -38.75 90.25 -38.0 89.2 -38.0 88.15 -38.0 87.4 -38.75 86.7 -39.45 86.7 -40.5 86.7 -41.55 87.4 -42.3 88.15 -43.0 89.2 -43.0 M84.4 -37.2 Q84.4 -36.15 83.65 -35.45 82.95 -34.7 81.9 -34.7 80.85 -34.7 80.1 -35.45 79.4 -36.15 79.4 -37.2 79.4 -38.25 80.1 -39.0 80.85 -39.7 81.9 -39.7 82.95 -39.7 83.65 -39.0 84.4 -38.25 84.4 -37.2 M65.5 -32.4 Q66.25 -33.1 67.3 -33.1 68.35 -33.1 69.05 -32.4 69.8 -31.65 69.8 -30.6 69.8 -29.55 69.05 -28.85 68.35 -28.1 67.3 -28.1 66.25 -28.1 65.5 -28.85 64.8 -29.55 64.8 -30.6 64.8 -31.65 65.5 -32.4 M72.8 -35.7 Q73.55 -36.4 74.6 -36.4 75.65 -36.4 76.35 -35.7 77.1 -34.95 77.1 -33.9 77.1 -32.85 76.35 -32.15 75.65 -31.4 74.6 -31.4 73.55 -31.4 72.8 -32.15 72.1 -32.85 72.1 -33.9 72.1 -34.95 72.8 -35.7 M58.2 -29.1 Q58.95 -29.8 60.0 -29.8 61.05 -29.8 61.75 -29.1 62.5 -28.35 62.5 -27.3 62.5 -26.25 61.75 -25.55 61.05 -24.8 60.0 -24.8 58.95 -24.8 58.2 -25.55 57.5 -26.25 57.5 -27.3 57.5 -28.35 58.2 -29.1 M50.9 -25.8 Q51.65 -26.5 52.7 -26.5 53.75 -26.5 54.45 -25.8 55.2 -25.05 55.2 -24.0 55.2 -22.95 54.45 -22.25 53.75 -21.5 52.7 -21.5 51.65 -21.5 50.9 -22.25 50.2 -22.95 50.2 -24.0 50.2 -25.05 50.9 -25.8 M42.9 -20.7 Q42.9 -21.75 43.6 -22.5 44.35 -23.2 45.4 -23.2 46.45 -23.2 47.15 -22.5 47.9 -21.75 47.9 -20.7 47.9 -19.65 47.15 -18.95 46.45 -18.2 45.4 -18.2 44.35 -18.2 43.6 -18.95 42.9 -19.65 42.9 -20.7 M40.6 -17.4 Q40.6 -16.35 39.85 -15.65 39.15 -14.9 38.1 -14.9 37.05 -14.9 36.3 -15.65 35.6 -16.35 35.6 -17.4 35.6 -18.45 36.3 -19.2 37.05 -19.9 38.1 -19.9 39.15 -19.9 39.85 -19.2 40.6 -18.45 40.6 -17.4 M8.9 -6.7 Q9.95 -6.7 10.65 -6.0 11.4 -5.25 11.4 -4.2 11.4 -3.15 10.65 -2.45 9.95 -1.7 8.9 -1.7 7.85 -1.7 7.1 -2.45 6.4 -3.15 6.4 -4.2 6.4 -5.25 7.1 -6.0 7.85 -6.7 8.9 -6.7 M17.95 -9.3 Q18.7 -8.55 18.7 -7.5 18.7 -6.45 17.95 -5.75 17.25 -5.0 16.2 -5.0 15.15 -5.0 14.4 -5.75 13.7 -6.45 13.7 -7.5 13.7 -8.55 14.4 -9.3 15.15 -10.0 16.2 -10.0 17.25 -10.0 17.95 -9.3 M28.3 -14.1 Q28.3 -15.15 29.0 -15.9 29.75 -16.6 30.8 -16.6 31.85 -16.6 32.55 -15.9 33.3 -15.15 33.3 -14.1 33.3 -13.05 32.55 -12.35 31.85 -11.6 30.8 -11.6 29.75 -11.6 29.0 -12.35 28.3 -13.05 28.3 -14.1 M26.0 -10.8 Q26.0 -9.75 25.25 -9.05 24.55 -8.3 23.5 -8.3 22.45 -8.3 21.7 -9.05 21.0 -9.75 21.0 -10.8 21.0 -11.85 21.7 -12.6 22.45 -13.3 23.5 -13.3 24.55 -13.3 25.25 -12.6 26.0 -11.85 26.0 -10.8 M-7.5 0.6 Q-6.75 -0.1 -5.7 -0.1 -4.65 -0.1 -3.95 0.6 -3.2 1.35 -3.2 2.4 -3.2 3.45 -3.95 4.15 -4.65 4.9 -5.7 4.9 -6.75 4.9 -7.5 4.15 -8.2 3.45 -8.2 2.4 -8.2 1.35 -7.5 0.6 M-18.55 7.2 Q-17.8 7.95 -17.8 9.0 -17.8 10.05 -18.55 10.75 -19.25 11.5 -20.3 11.5 -21.35 11.5 -22.1 10.75 -22.8 10.05 -22.8 9.0 -22.8 7.95 -22.1 7.2 -21.35 6.5 -20.3 6.5 -19.25 6.5 -18.55 7.2 M-14.8 3.9 Q-14.05 3.2 -13.0 3.2 -11.95 3.2 -11.25 3.9 -10.5 4.65 -10.5 5.7 -10.5 6.75 -11.25 7.45 -11.95 8.2 -13.0 8.2 -14.05 8.2 -14.8 7.45 -15.5 6.75 -15.5 5.7 -15.5 4.65 -14.8 3.9 M-33.15 13.8 Q-32.4 14.55 -32.4 15.6 -32.4 16.65 -33.15 17.35 -33.85 18.1 -34.9 18.1 -35.95 18.1 -36.7 17.35 -37.4 16.65 -37.4 15.6 -37.4 14.55 -36.7 13.8 -35.95 13.1 -34.9 13.1 -33.85 13.1 -33.15 13.8 M-39.7 18.9 Q-39.7 19.95 -40.45 20.65 -41.15 21.4 -42.2 21.4 -43.25 21.4 -44.0 20.65 -44.7 19.95 -44.7 18.9 -44.7 17.85 -44.0 17.1 -43.25 16.4 -42.2 16.4 -41.15 16.4 -40.45 17.1 -39.7 17.85 -39.7 18.9 M-25.1 12.3 Q-25.1 13.35 -25.85 14.05 -26.55 14.8 -27.6 14.8 -28.65 14.8 -29.4 14.05 -30.1 13.35 -30.1 12.3 -30.1 11.25 -29.4 10.5 -28.65 9.8 -27.6 9.8 -26.55 9.8 -25.85 10.5 -25.1 11.25 -25.1 12.3 M-0.2 -2.7 Q0.55 -3.4 1.6 -3.4 2.65 -3.4 3.35 -2.7 4.1 -1.95 4.1 -0.9 4.1 0.15 3.35 0.85 2.65 1.6 1.6 1.6 0.55 1.6 -0.2 0.85 -0.9 0.15 -0.9 -0.9 -0.9 -1.95 -0.2 -2.7 M-98.85 43.5 Q-98.1 44.25 -98.1 45.3 -98.1 46.35 -98.85 47.05 -99.55 47.8 -100.6 47.8 -101.65 47.8 -102.4 47.05 -103.1 46.35 -103.1 45.3 -103.1 44.25 -102.4 43.5 -101.65 42.8 -100.6 42.8 -99.55 42.8 -98.85 43.5 M-95.1 40.2 Q-94.35 39.5 -93.3 39.5 -92.25 39.5 -91.55 40.2 -90.8 40.95 -90.8 42.0 -90.8 43.05 -91.55 43.75 -92.25 44.5 -93.3 44.5 -94.35 44.5 -95.1 43.75 -95.8 43.05 -95.8 42.0 -95.8 40.95 -95.1 40.2 M-84.25 36.9 Q-83.5 37.65 -83.5 38.7 -83.5 39.75 -84.25 40.45 -84.95 41.2 -86.0 41.2 -87.05 41.2 -87.8 40.45 -88.5 39.75 -88.5 38.7 -88.5 37.65 -87.8 36.9 -87.05 36.2 -86.0 36.2 -84.95 36.2 -84.25 36.9 M-68.9 32.1 Q-68.9 33.15 -69.65 33.85 -70.35 34.6 -71.4 34.6 -72.45 34.6 -73.2 33.85 -73.9 33.15 -73.9 32.1 -73.9 31.05 -73.2 30.3 -72.45 29.6 -71.4 29.6 -70.35 29.6 -69.65 30.3 -68.9 31.05 -68.9 32.1 M-62.35 27.0 Q-61.6 27.75 -61.6 28.8 -61.6 29.85 -62.35 30.55 -63.05 31.3 -64.1 31.3 -65.15 31.3 -65.9 30.55 -66.6 29.85 -66.6 28.8 -66.6 27.75 -65.9 27.0 -65.15 26.3 -64.1 26.3 -63.05 26.3 -62.35 27.0 M-80.5 33.6 Q-79.75 32.9 -78.7 32.9 -77.65 32.9 -76.95 33.6 -76.2 34.35 -76.2 35.4 -76.2 36.45 -76.95 37.15 -77.65 37.9 -78.7 37.9 -79.75 37.9 -80.5 37.15 -81.2 36.45 -81.2 35.4 -81.2 34.35 -80.5 33.6 M-47.75 23.95 Q-48.45 24.7 -49.5 24.7 -50.55 24.7 -51.3 23.95 -52.0 23.25 -52.0 22.2 -52.0 21.15 -51.3 20.4 -50.55 19.7 -49.5 19.7 -48.45 19.7 -47.75 20.4 -47.0 21.15 -47.0 22.2 -47.0 23.25 -47.75 23.95 M-58.6 23.7 Q-57.85 23.0 -56.8 23.0 -55.75 23.0 -55.05 23.7 -54.3 24.45 -54.3 25.5 -54.3 26.55 -55.05 27.25 -55.75 28.0 -56.8 28.0 -57.85 28.0 -58.6 27.25 -59.3 26.55 -59.3 25.5 -59.3 24.45 -58.6 23.7 M-129.8 56.05 Q-128.75 56.05 -128.05 56.75 -127.3 57.5 -127.3 58.55 -127.3 59.6 -128.05 60.3 -128.75 61.05 -129.8 61.05 -130.85 61.05 -131.6 60.3 -132.3 59.6 -132.3 58.55 -132.3 57.5 -131.6 56.75 -130.85 56.05 -129.8 56.05 M-124.3 53.45 Q-123.55 52.75 -122.5 52.75 -121.45 52.75 -120.75 53.45 -120.0 54.2 -120.0 55.25 -120.0 56.3 -120.75 57.0 -121.45 57.75 -122.5 57.75 -123.55 57.75 -124.3 57.0 -125.0 56.3 -125.0 55.25 -125.0 54.2 -124.3 53.45 M-135.35 60.15 Q-134.6 60.9 -134.6 61.95 -134.6 63.0 -135.35 63.7 -136.05 64.45 -137.1 64.45 -138.15 64.45 -138.9 63.7 -139.6 63.0 -139.6 61.95 -139.6 60.9 -138.9 60.15 -138.15 59.45 -137.1 59.45 -136.05 59.45 -135.35 60.15 M-142.6 67.1 Q-143.3 67.85 -144.35 67.85 -145.4 67.85 -146.15 67.1 -146.85 66.4 -146.85 65.35 -146.85 64.3 -146.15 63.55 -145.4 62.85 -144.35 62.85 -143.3 62.85 -142.6 63.55 -141.85 64.3 -141.85 65.35 -141.85 66.4 -142.6 67.1 M-153.45 66.85 Q-152.7 66.15 -151.65 66.15 -150.6 66.15 -149.9 66.85 -149.15 67.6 -149.15 68.65 -149.15 69.7 -149.9 70.4 -150.6 71.15 -151.65 71.15 -152.7 71.15 -153.45 70.4 -154.15 69.7 -154.15 68.65 -154.15 67.6 -153.45 66.85 M-160.65 70.25 Q-159.9 69.55 -158.85 69.55 -157.8 69.55 -157.1 70.25 -156.35 71.0 -156.35 72.05 -156.35 73.1 -157.1 73.8 -157.8 74.55 -158.85 74.55 -159.9 74.55 -160.65 73.8 -161.35 73.1 -161.35 72.05 -161.35 71.0 -160.65 70.25 M-105.4 48.6 Q-105.4 49.65 -106.15 50.35 -106.85 51.1 -107.9 51.1 -108.95 51.1 -109.7 50.35 -110.4 49.65 -110.4 48.6 -110.4 47.55 -109.7 46.8 -108.95 46.1 -107.9 46.1 -106.85 46.1 -106.15 46.8 -105.4 47.55 -105.4 48.6 M-113.45 50.1 Q-112.7 50.85 -112.7 51.9 -112.7 52.95 -113.45 53.65 -114.15 54.4 -115.2 54.4 -116.25 54.4 -117.0 53.65 -117.7 52.95 -117.7 51.9 -117.7 50.85 -117.0 50.1 -116.25 49.4 -115.2 49.4 -114.15 49.4 -113.45 50.1" fill="#ffcc99" fill-rule="evenodd" stroke="none"/>
  </g>
</svg>
